<?xml version="1.0" encoding="UTF-8" standalone="no"?>
<!-- Created with Inkscape (http://www.inkscape.org/) -->

<svg
   version="1.1"
   id="svg1"
   width="576"
   height="624"
   viewBox="0 0 576 624"
   sodipodi:docname="fig-1.pdf"
   xmlns:inkscape="http://www.inkscape.org/namespaces/inkscape"
   xmlns:sodipodi="http://sodipodi.sourceforge.net/DTD/sodipodi-0.dtd"
   xmlns="http://www.w3.org/2000/svg"
   xmlns:svg="http://www.w3.org/2000/svg">
  <defs
     id="defs1">
    <clipPath
       clipPathUnits="userSpaceOnUse"
       id="clipPath3">
      <path
         d="M 0,9.1553e-5 H 432 V 468.00009 H 0 Z"
         clip-rule="evenodd"
         id="path3" />
    </clipPath>
    <clipPath
       clipPathUnits="userSpaceOnUse"
       id="clipPath205">
      <path
         d="M 6.437e-6,0 H 432.00001 V 468 H 6.437e-6 Z"
         transform="matrix(1,0,0,-1,-88.224002,427.27001)"
         clip-rule="evenodd"
         id="path205" />
    </clipPath>
    <clipPath
       clipPathUnits="userSpaceOnUse"
       id="clipPath208">
      <path
         d="M 6.437e-6,0 H 432.00001 V 468 H 6.437e-6 Z"
         transform="matrix(1,0,0,-1,-286.03,427.27001)"
         clip-rule="evenodd"
         id="path208" />
    </clipPath>
  </defs>
  <sodipodi:namedview
     id="namedview1"
     pagecolor="#ffffff"
     bordercolor="#000000"
     borderopacity="0.25"
     inkscape:showpageshadow="2"
     inkscape:pageopacity="0.0"
     inkscape:pagecheckerboard="0"
     inkscape:deskcolor="#d1d1d1">
    <inkscape:page
       x="0"
       y="0"
       inkscape:label="1"
       id="page1"
       width="576"
       height="624"
       margin="0"
       bleed="0" />
  </sodipodi:namedview>
  <g
     id="g1"
     inkscape:groupmode="layer"
     inkscape:label="1">
    <g
       id="g2">
      <path
         id="path2"
         d="M 0,3.0518e-5 H 432 V 468.00003 H 0 Z"
         style="fill:#ffffff;fill-opacity:1;fill-rule:evenodd;stroke:none"
         transform="matrix(1.3333333,0,0,-1.3333333,0,624)"
         clip-path="url(#clipPath3)" />
    </g>
    <g
       id="g3">
      <path
         id="path4"
         d="M 23.76,375.07 H 55.8 v 32.062 H 23.76 Z"
         style="fill:#f2f2f2;fill-opacity:1;fill-rule:evenodd;stroke:none"
         transform="matrix(1.3333333,0,0,-1.3333333,0,624)" />
      <path
         id="path5"
         d="m 55.8,375.07 h 32.04 v 32.062 H 55.8 Z"
         style="fill:#f2f2f2;fill-opacity:1;fill-rule:evenodd;stroke:none"
         transform="matrix(1.3333333,0,0,-1.3333333,0,624)" />
      <path
         id="path6"
         d="m 87.84,375.07 h 32.04 v 32.062 H 87.84 Z"
         style="fill:#f2f2f2;fill-opacity:1;fill-rule:evenodd;stroke:none"
         transform="matrix(1.3333333,0,0,-1.3333333,0,624)" />
      <path
         id="path7"
         d="m 119.88,375.07 h 32.04 v 32.062 h -32.04 z"
         style="fill:#f2f2f2;fill-opacity:1;fill-rule:evenodd;stroke:none"
         transform="matrix(1.3333333,0,0,-1.3333333,0,624)" />
      <path
         id="path8"
         d="m 151.92,375.07 h 32.04 v 32.062 h -32.04 z"
         style="fill:#f2f2f2;fill-opacity:1;fill-rule:evenodd;stroke:none"
         transform="matrix(1.3333333,0,0,-1.3333333,0,624)" />
      <path
         id="path9"
         d="M 183.96,375.07 H 216 v 32.062 h -32.04 z"
         style="fill:#f2f2f2;fill-opacity:1;fill-rule:evenodd;stroke:none"
         transform="matrix(1.3333333,0,0,-1.3333333,0,624)" />
      <path
         id="path10"
         d="m 216,375.07 h 32.04 v 32.062 H 216 Z"
         style="fill:#f2f2f2;fill-opacity:1;fill-rule:evenodd;stroke:none"
         transform="matrix(1.3333333,0,0,-1.3333333,0,624)" />
      <path
         id="path11"
         d="m 248.04,375.07 h 32.04 v 32.062 h -32.04 z"
         style="fill:#f2f2f2;fill-opacity:1;fill-rule:evenodd;stroke:none"
         transform="matrix(1.3333333,0,0,-1.3333333,0,624)" />
      <path
         id="path12"
         d="m 280.08,375.07 h 32.04 v 32.062 h -32.04 z"
         style="fill:#f2f2f2;fill-opacity:1;fill-rule:evenodd;stroke:none"
         transform="matrix(1.3333333,0,0,-1.3333333,0,624)" />
      <path
         id="path13"
         d="m 312.12,375.07 h 32.04 v 32.062 h -32.04 z"
         style="fill:#f2f2f2;fill-opacity:1;fill-rule:evenodd;stroke:none"
         transform="matrix(1.3333333,0,0,-1.3333333,0,624)" />
      <path
         id="path14"
         d="m 344.16,375.07 h 32.04 v 32.062 h -32.04 z"
         style="fill:#f2f2f2;fill-opacity:1;fill-rule:evenodd;stroke:none"
         transform="matrix(1.3333333,0,0,-1.3333333,0,624)" />
      <path
         id="path15"
         d="m 376.2,375.07 h 32.04 v 32.062 H 376.2 Z"
         style="fill:#f2f2f2;fill-opacity:1;fill-rule:evenodd;stroke:none"
         transform="matrix(1.3333333,0,0,-1.3333333,0,624)" />
      <path
         id="path16"
         d="M 23.76,343 H 55.8 v 32.062 H 23.76 Z"
         style="fill:#f2f2f2;fill-opacity:1;fill-rule:evenodd;stroke:none"
         transform="matrix(1.3333333,0,0,-1.3333333,0,624)" />
      <path
         id="path17"
         d="m 55.8,343 h 32.04 v 32.062 H 55.8 Z"
         style="fill:#f2f2f2;fill-opacity:1;fill-rule:evenodd;stroke:none"
         transform="matrix(1.3333333,0,0,-1.3333333,0,624)" />
      <path
         id="path18"
         d="m 87.84,343 h 32.04 v 32.062 H 87.84 Z"
         style="fill:#f2f2f2;fill-opacity:1;fill-rule:evenodd;stroke:none"
         transform="matrix(1.3333333,0,0,-1.3333333,0,624)" />
      <path
         id="path19"
         d="m 119.88,343 h 32.04 v 32.062 h -32.04 z"
         style="fill:#f2f2f2;fill-opacity:1;fill-rule:evenodd;stroke:none"
         transform="matrix(1.3333333,0,0,-1.3333333,0,624)" />
      <path
         id="path20"
         d="m 151.92,343 h 32.04 v 32.062 h -32.04 z"
         style="fill:#f2f2f2;fill-opacity:1;fill-rule:evenodd;stroke:none"
         transform="matrix(1.3333333,0,0,-1.3333333,0,624)" />
      <path
         id="path21"
         d="M 183.96,343 H 216 v 32.062 h -32.04 z"
         style="fill:#f2f2f2;fill-opacity:1;fill-rule:evenodd;stroke:none"
         transform="matrix(1.3333333,0,0,-1.3333333,0,624)" />
      <path
         id="path22"
         d="m 216,343 h 32.04 v 32.062 H 216 Z"
         style="fill:#f2f2f2;fill-opacity:1;fill-rule:evenodd;stroke:none"
         transform="matrix(1.3333333,0,0,-1.3333333,0,624)" />
      <path
         id="path23"
         d="m 248.04,343 h 32.04 v 32.062 h -32.04 z"
         style="fill:#f2f2f2;fill-opacity:1;fill-rule:evenodd;stroke:none"
         transform="matrix(1.3333333,0,0,-1.3333333,0,624)" />
      <path
         id="path24"
         d="m 280.08,343 h 32.04 v 32.062 h -32.04 z"
         style="fill:#f2f2f2;fill-opacity:1;fill-rule:evenodd;stroke:none"
         transform="matrix(1.3333333,0,0,-1.3333333,0,624)" />
      <path
         id="path25"
         d="m 312.12,343 h 32.04 v 32.062 h -32.04 z"
         style="fill:#f2f2f2;fill-opacity:1;fill-rule:evenodd;stroke:none"
         transform="matrix(1.3333333,0,0,-1.3333333,0,624)" />
      <path
         id="path26"
         d="m 344.16,343 h 32.04 v 32.062 h -32.04 z"
         style="fill:#f2f2f2;fill-opacity:1;fill-rule:evenodd;stroke:none"
         transform="matrix(1.3333333,0,0,-1.3333333,0,624)" />
      <path
         id="path27"
         d="m 376.2,343 h 32.04 v 32.062 H 376.2 Z"
         style="fill:#f2f2f2;fill-opacity:1;fill-rule:evenodd;stroke:none"
         transform="matrix(1.3333333,0,0,-1.3333333,0,624)" />
      <path
         id="path28"
         d="M 23.76,310.94 H 55.8 v 32.062 H 23.76 Z"
         style="fill:#f2f2f2;fill-opacity:1;fill-rule:evenodd;stroke:none"
         transform="matrix(1.3333333,0,0,-1.3333333,0,624)" />
      <path
         id="path29"
         d="m 55.8,310.94 h 32.04 v 32.062 H 55.8 Z"
         style="fill:#f2f2f2;fill-opacity:1;fill-rule:evenodd;stroke:none"
         transform="matrix(1.3333333,0,0,-1.3333333,0,624)" />
      <path
         id="path30"
         d="m 87.84,310.94 h 32.04 v 32.062 H 87.84 Z"
         style="fill:#f2f2f2;fill-opacity:1;fill-rule:evenodd;stroke:none"
         transform="matrix(1.3333333,0,0,-1.3333333,0,624)" />
      <path
         id="path31"
         d="m 119.88,310.94 h 32.04 v 32.062 h -32.04 z"
         style="fill:#f2f2f2;fill-opacity:1;fill-rule:evenodd;stroke:none"
         transform="matrix(1.3333333,0,0,-1.3333333,0,624)" />
      <path
         id="path32"
         d="m 151.92,310.94 h 32.04 v 32.062 h -32.04 z"
         style="fill:#f2f2f2;fill-opacity:1;fill-rule:evenodd;stroke:none"
         transform="matrix(1.3333333,0,0,-1.3333333,0,624)" />
      <path
         id="path33"
         d="M 183.96,310.94 H 216 v 32.062 h -32.04 z"
         style="fill:#f2f2f2;fill-opacity:1;fill-rule:evenodd;stroke:none"
         transform="matrix(1.3333333,0,0,-1.3333333,0,624)" />
      <path
         id="path34"
         d="m 216,310.94 h 32.04 v 32.062 H 216 Z"
         style="fill:#f2f2f2;fill-opacity:1;fill-rule:evenodd;stroke:none"
         transform="matrix(1.3333333,0,0,-1.3333333,0,624)" />
      <path
         id="path35"
         d="m 248.04,310.94 h 32.04 v 32.062 h -32.04 z"
         style="fill:#f2f2f2;fill-opacity:1;fill-rule:evenodd;stroke:none"
         transform="matrix(1.3333333,0,0,-1.3333333,0,624)" />
      <path
         id="path36"
         d="m 280.08,310.94 h 32.04 v 32.062 h -32.04 z"
         style="fill:#f2f2f2;fill-opacity:1;fill-rule:evenodd;stroke:none"
         transform="matrix(1.3333333,0,0,-1.3333333,0,624)" />
      <path
         id="path37"
         d="m 312.12,310.94 h 32.04 v 32.062 h -32.04 z"
         style="fill:#f2f2f2;fill-opacity:1;fill-rule:evenodd;stroke:none"
         transform="matrix(1.3333333,0,0,-1.3333333,0,624)" />
      <path
         id="path38"
         d="m 344.16,310.94 h 32.04 v 32.062 h -32.04 z"
         style="fill:#f2f2f2;fill-opacity:1;fill-rule:evenodd;stroke:none"
         transform="matrix(1.3333333,0,0,-1.3333333,0,624)" />
      <path
         id="path39"
         d="m 376.2,310.94 h 32.04 v 32.062 H 376.2 Z"
         style="fill:#f2f2f2;fill-opacity:1;fill-rule:evenodd;stroke:none"
         transform="matrix(1.3333333,0,0,-1.3333333,0,624)" />
      <path
         id="path40"
         d="M 23.76,278.88 H 55.8 v 32.062 H 23.76 Z"
         style="fill:#f2f2f2;fill-opacity:1;fill-rule:evenodd;stroke:none"
         transform="matrix(1.3333333,0,0,-1.3333333,0,624)" />
      <path
         id="path41"
         d="m 55.8,278.88 h 32.04 v 32.062 H 55.8 Z"
         style="fill:#f2f2f2;fill-opacity:1;fill-rule:evenodd;stroke:none"
         transform="matrix(1.3333333,0,0,-1.3333333,0,624)" />
      <path
         id="path42"
         d="m 87.84,278.88 h 32.04 v 32.062 H 87.84 Z"
         style="fill:#f2f2f2;fill-opacity:1;fill-rule:evenodd;stroke:none"
         transform="matrix(1.3333333,0,0,-1.3333333,0,624)" />
      <path
         id="path43"
         d="m 119.88,278.88 h 32.04 v 32.062 h -32.04 z"
         style="fill:#f2f2f2;fill-opacity:1;fill-rule:evenodd;stroke:none"
         transform="matrix(1.3333333,0,0,-1.3333333,0,624)" />
      <path
         id="path44"
         d="m 151.92,278.88 h 32.04 v 32.062 h -32.04 z"
         style="fill:#f2f2f2;fill-opacity:1;fill-rule:evenodd;stroke:none"
         transform="matrix(1.3333333,0,0,-1.3333333,0,624)" />
      <path
         id="path45"
         d="M 183.96,278.88 H 216 v 32.062 h -32.04 z"
         style="fill:#f2f2f2;fill-opacity:1;fill-rule:evenodd;stroke:none"
         transform="matrix(1.3333333,0,0,-1.3333333,0,624)" />
      <path
         id="path46"
         d="m 216,278.88 h 32.04 v 32.062 H 216 Z"
         style="fill:#f2f2f2;fill-opacity:1;fill-rule:evenodd;stroke:none"
         transform="matrix(1.3333333,0,0,-1.3333333,0,624)" />
      <path
         id="path47"
         d="m 248.04,278.88 h 32.04 v 32.062 h -32.04 z"
         style="fill:#f2f2f2;fill-opacity:1;fill-rule:evenodd;stroke:none"
         transform="matrix(1.3333333,0,0,-1.3333333,0,624)" />
      <path
         id="path48"
         d="m 280.08,278.88 h 32.04 v 32.062 h -32.04 z"
         style="fill:#f2f2f2;fill-opacity:1;fill-rule:evenodd;stroke:none"
         transform="matrix(1.3333333,0,0,-1.3333333,0,624)" />
      <path
         id="path49"
         d="m 312.12,278.88 h 32.04 v 32.062 h -32.04 z"
         style="fill:#f2f2f2;fill-opacity:1;fill-rule:evenodd;stroke:none"
         transform="matrix(1.3333333,0,0,-1.3333333,0,624)" />
      <path
         id="path50"
         d="m 344.16,278.88 h 32.04 v 32.062 h -32.04 z"
         style="fill:#f2f2f2;fill-opacity:1;fill-rule:evenodd;stroke:none"
         transform="matrix(1.3333333,0,0,-1.3333333,0,624)" />
      <path
         id="path51"
         d="m 376.2,278.88 h 32.04 v 32.062 H 376.2 Z"
         style="fill:#f2f2f2;fill-opacity:1;fill-rule:evenodd;stroke:none"
         transform="matrix(1.3333333,0,0,-1.3333333,0,624)" />
      <path
         id="path52"
         d="M 23.76,246.82 H 55.8 v 32.062 H 23.76 Z"
         style="fill:#f2f2f2;fill-opacity:1;fill-rule:evenodd;stroke:none"
         transform="matrix(1.3333333,0,0,-1.3333333,0,624)" />
      <path
         id="path53"
         d="m 55.8,246.82 h 32.04 v 32.062 H 55.8 Z"
         style="fill:#f2f2f2;fill-opacity:1;fill-rule:evenodd;stroke:none"
         transform="matrix(1.3333333,0,0,-1.3333333,0,624)" />
      <path
         id="path54"
         d="m 87.84,246.82 h 32.04 v 32.062 H 87.84 Z"
         style="fill:#f2f2f2;fill-opacity:1;fill-rule:evenodd;stroke:none"
         transform="matrix(1.3333333,0,0,-1.3333333,0,624)" />
      <path
         id="path55"
         d="m 119.88,246.82 h 32.04 v 32.062 h -32.04 z"
         style="fill:#f2f2f2;fill-opacity:1;fill-rule:evenodd;stroke:none"
         transform="matrix(1.3333333,0,0,-1.3333333,0,624)" />
      <path
         id="path56"
         d="m 151.92,246.82 h 32.04 v 32.062 h -32.04 z"
         style="fill:#f2f2f2;fill-opacity:1;fill-rule:evenodd;stroke:none"
         transform="matrix(1.3333333,0,0,-1.3333333,0,624)" />
      <path
         id="path57"
         d="M 183.96,246.82 H 216 v 32.062 h -32.04 z"
         style="fill:#f2f2f2;fill-opacity:1;fill-rule:evenodd;stroke:none"
         transform="matrix(1.3333333,0,0,-1.3333333,0,624)" />
      <path
         id="path58"
         d="m 216,246.82 h 32.04 v 32.062 H 216 Z"
         style="fill:#f2f2f2;fill-opacity:1;fill-rule:evenodd;stroke:none"
         transform="matrix(1.3333333,0,0,-1.3333333,0,624)" />
      <path
         id="path59"
         d="m 248.04,246.82 h 32.04 v 32.062 h -32.04 z"
         style="fill:#f2f2f2;fill-opacity:1;fill-rule:evenodd;stroke:none"
         transform="matrix(1.3333333,0,0,-1.3333333,0,624)" />
      <path
         id="path60"
         d="m 280.08,246.82 h 32.04 v 32.062 h -32.04 z"
         style="fill:#f2f2f2;fill-opacity:1;fill-rule:evenodd;stroke:none"
         transform="matrix(1.3333333,0,0,-1.3333333,0,624)" />
      <path
         id="path61"
         d="m 312.12,246.82 h 32.04 v 32.062 h -32.04 z"
         style="fill:#f2f2f2;fill-opacity:1;fill-rule:evenodd;stroke:none"
         transform="matrix(1.3333333,0,0,-1.3333333,0,624)" />
      <path
         id="path62"
         d="m 344.16,246.82 h 32.04 v 32.062 h -32.04 z"
         style="fill:#f2f2f2;fill-opacity:1;fill-rule:evenodd;stroke:none"
         transform="matrix(1.3333333,0,0,-1.3333333,0,624)" />
      <path
         id="path63"
         d="m 376.2,246.82 h 32.04 v 32.062 H 376.2 Z"
         style="fill:#f2f2f2;fill-opacity:1;fill-rule:evenodd;stroke:none"
         transform="matrix(1.3333333,0,0,-1.3333333,0,624)" />
      <path
         id="path64"
         d="M 23.76,214.75 H 55.8 v 32.062 H 23.76 Z"
         style="fill:#f2f2f2;fill-opacity:1;fill-rule:evenodd;stroke:none"
         transform="matrix(1.3333333,0,0,-1.3333333,0,624)" />
      <path
         id="path65"
         d="m 55.8,214.75 h 32.04 v 32.062 H 55.8 Z"
         style="fill:#f2f2f2;fill-opacity:1;fill-rule:evenodd;stroke:none"
         transform="matrix(1.3333333,0,0,-1.3333333,0,624)" />
      <path
         id="path66"
         d="m 87.84,214.75 h 32.04 v 32.062 H 87.84 Z"
         style="fill:#f2f2f2;fill-opacity:1;fill-rule:evenodd;stroke:none"
         transform="matrix(1.3333333,0,0,-1.3333333,0,624)" />
      <path
         id="path67"
         d="m 119.88,214.75 h 32.04 v 32.062 h -32.04 z"
         style="fill:#f2f2f2;fill-opacity:1;fill-rule:evenodd;stroke:none"
         transform="matrix(1.3333333,0,0,-1.3333333,0,624)" />
      <path
         id="path68"
         d="m 151.92,214.75 h 32.04 v 32.062 h -32.04 z"
         style="fill:#f2f2f2;fill-opacity:1;fill-rule:evenodd;stroke:none"
         transform="matrix(1.3333333,0,0,-1.3333333,0,624)" />
      <path
         id="path69"
         d="M 183.96,214.75 H 216 v 32.062 h -32.04 z"
         style="fill:#f2f2f2;fill-opacity:1;fill-rule:evenodd;stroke:none"
         transform="matrix(1.3333333,0,0,-1.3333333,0,624)" />
      <path
         id="path70"
         d="m 216,214.75 h 32.04 v 32.062 H 216 Z"
         style="fill:#f2f2f2;fill-opacity:1;fill-rule:evenodd;stroke:none"
         transform="matrix(1.3333333,0,0,-1.3333333,0,624)" />
      <path
         id="path71"
         d="m 248.04,214.75 h 32.04 v 32.062 h -32.04 z"
         style="fill:#f2f2f2;fill-opacity:1;fill-rule:evenodd;stroke:none"
         transform="matrix(1.3333333,0,0,-1.3333333,0,624)" />
      <path
         id="path72"
         d="m 280.08,214.75 h 32.04 v 32.062 h -32.04 z"
         style="fill:#f2f2f2;fill-opacity:1;fill-rule:evenodd;stroke:none"
         transform="matrix(1.3333333,0,0,-1.3333333,0,624)" />
      <path
         id="path73"
         d="m 312.12,214.75 h 32.04 v 32.062 h -32.04 z"
         style="fill:#f2f2f2;fill-opacity:1;fill-rule:evenodd;stroke:none"
         transform="matrix(1.3333333,0,0,-1.3333333,0,624)" />
      <path
         id="path74"
         d="m 344.16,214.75 h 32.04 v 32.062 h -32.04 z"
         style="fill:#f2f2f2;fill-opacity:1;fill-rule:evenodd;stroke:none"
         transform="matrix(1.3333333,0,0,-1.3333333,0,624)" />
      <path
         id="path75"
         d="m 376.2,214.75 h 32.04 v 32.062 H 376.2 Z"
         style="fill:#f2f2f2;fill-opacity:1;fill-rule:evenodd;stroke:none"
         transform="matrix(1.3333333,0,0,-1.3333333,0,624)" />
      <path
         id="path76"
         d="M 23.76,182.69 H 55.8 v 32.062 H 23.76 Z"
         style="fill:#f2f2f2;fill-opacity:1;fill-rule:evenodd;stroke:none"
         transform="matrix(1.3333333,0,0,-1.3333333,0,624)" />
      <path
         id="path77"
         d="m 55.8,182.69 h 32.04 v 32.062 H 55.8 Z"
         style="fill:#f2f2f2;fill-opacity:1;fill-rule:evenodd;stroke:none"
         transform="matrix(1.3333333,0,0,-1.3333333,0,624)" />
      <path
         id="path78"
         d="m 87.84,182.69 h 32.04 v 32.062 H 87.84 Z"
         style="fill:#f2f2f2;fill-opacity:1;fill-rule:evenodd;stroke:none"
         transform="matrix(1.3333333,0,0,-1.3333333,0,624)" />
      <path
         id="path79"
         d="m 119.88,182.69 h 32.04 v 32.062 h -32.04 z"
         style="fill:#f2f2f2;fill-opacity:1;fill-rule:evenodd;stroke:none"
         transform="matrix(1.3333333,0,0,-1.3333333,0,624)" />
      <path
         id="path80"
         d="m 151.92,182.69 h 32.04 v 32.062 h -32.04 z"
         style="fill:#f2f2f2;fill-opacity:1;fill-rule:evenodd;stroke:none"
         transform="matrix(1.3333333,0,0,-1.3333333,0,624)" />
      <path
         id="path81"
         d="M 183.96,182.69 H 216 v 32.062 h -32.04 z"
         style="fill:#f2f2f2;fill-opacity:1;fill-rule:evenodd;stroke:none"
         transform="matrix(1.3333333,0,0,-1.3333333,0,624)" />
      <path
         id="path82"
         d="m 216,182.69 h 32.04 v 32.062 H 216 Z"
         style="fill:#f2f2f2;fill-opacity:1;fill-rule:evenodd;stroke:none"
         transform="matrix(1.3333333,0,0,-1.3333333,0,624)" />
      <path
         id="path83"
         d="m 248.04,182.69 h 32.04 v 32.062 h -32.04 z"
         style="fill:#f2f2f2;fill-opacity:1;fill-rule:evenodd;stroke:none"
         transform="matrix(1.3333333,0,0,-1.3333333,0,624)" />
      <path
         id="path84"
         d="m 280.08,182.69 h 32.04 v 32.062 h -32.04 z"
         style="fill:#f2f2f2;fill-opacity:1;fill-rule:evenodd;stroke:none"
         transform="matrix(1.3333333,0,0,-1.3333333,0,624)" />
      <path
         id="path85"
         d="m 312.12,182.69 h 32.04 v 32.062 h -32.04 z"
         style="fill:#f2f2f2;fill-opacity:1;fill-rule:evenodd;stroke:none"
         transform="matrix(1.3333333,0,0,-1.3333333,0,624)" />
      <path
         id="path86"
         d="m 344.16,182.69 h 32.04 v 32.062 h -32.04 z"
         style="fill:#f2f2f2;fill-opacity:1;fill-rule:evenodd;stroke:none"
         transform="matrix(1.3333333,0,0,-1.3333333,0,624)" />
      <path
         id="path87"
         d="m 376.2,182.69 h 32.04 v 32.062 H 376.2 Z"
         style="fill:#f2f2f2;fill-opacity:1;fill-rule:evenodd;stroke:none"
         transform="matrix(1.3333333,0,0,-1.3333333,0,624)" />
      <path
         id="path88"
         d="M 23.76,150.63 H 55.8 v 32.062 H 23.76 Z"
         style="fill:#f2f2f2;fill-opacity:1;fill-rule:evenodd;stroke:none"
         transform="matrix(1.3333333,0,0,-1.3333333,0,624)" />
      <path
         id="path89"
         d="m 55.8,150.63 h 32.04 v 32.062 H 55.8 Z"
         style="fill:#f2f2f2;fill-opacity:1;fill-rule:evenodd;stroke:none"
         transform="matrix(1.3333333,0,0,-1.3333333,0,624)" />
      <path
         id="path90"
         d="m 87.84,150.63 h 32.04 v 32.062 H 87.84 Z"
         style="fill:#f2f2f2;fill-opacity:1;fill-rule:evenodd;stroke:none"
         transform="matrix(1.3333333,0,0,-1.3333333,0,624)" />
      <path
         id="path91"
         d="m 119.88,150.63 h 32.04 v 32.062 h -32.04 z"
         style="fill:#f2f2f2;fill-opacity:1;fill-rule:evenodd;stroke:none"
         transform="matrix(1.3333333,0,0,-1.3333333,0,624)" />
      <path
         id="path92"
         d="m 151.92,150.63 h 32.04 v 32.062 h -32.04 z"
         style="fill:#f2f2f2;fill-opacity:1;fill-rule:evenodd;stroke:none"
         transform="matrix(1.3333333,0,0,-1.3333333,0,624)" />
      <path
         id="path93"
         d="M 183.96,150.63 H 216 v 32.062 h -32.04 z"
         style="fill:#f2f2f2;fill-opacity:1;fill-rule:evenodd;stroke:none"
         transform="matrix(1.3333333,0,0,-1.3333333,0,624)" />
      <path
         id="path94"
         d="m 216,150.63 h 32.04 v 32.062 H 216 Z"
         style="fill:#f2f2f2;fill-opacity:1;fill-rule:evenodd;stroke:none"
         transform="matrix(1.3333333,0,0,-1.3333333,0,624)" />
      <path
         id="path95"
         d="m 248.04,150.63 h 32.04 v 32.062 h -32.04 z"
         style="fill:#f2f2f2;fill-opacity:1;fill-rule:evenodd;stroke:none"
         transform="matrix(1.3333333,0,0,-1.3333333,0,624)" />
      <path
         id="path96"
         d="m 280.08,150.63 h 32.04 v 32.062 h -32.04 z"
         style="fill:#f2f2f2;fill-opacity:1;fill-rule:evenodd;stroke:none"
         transform="matrix(1.3333333,0,0,-1.3333333,0,624)" />
      <path
         id="path97"
         d="m 312.12,150.63 h 32.04 v 32.062 h -32.04 z"
         style="fill:#f2f2f2;fill-opacity:1;fill-rule:evenodd;stroke:none"
         transform="matrix(1.3333333,0,0,-1.3333333,0,624)" />
      <path
         id="path98"
         d="m 344.16,150.63 h 32.04 v 32.062 h -32.04 z"
         style="fill:#f2f2f2;fill-opacity:1;fill-rule:evenodd;stroke:none"
         transform="matrix(1.3333333,0,0,-1.3333333,0,624)" />
      <path
         id="path99"
         d="m 376.2,150.63 h 32.04 v 32.062 H 376.2 Z"
         style="fill:#f2f2f2;fill-opacity:1;fill-rule:evenodd;stroke:none"
         transform="matrix(1.3333333,0,0,-1.3333333,0,624)" />
      <path
         id="path100"
         d="M 23.76,118.57 H 55.8 v 32.062 H 23.76 Z"
         style="fill:#f2f2f2;fill-opacity:1;fill-rule:evenodd;stroke:none"
         transform="matrix(1.3333333,0,0,-1.3333333,0,624)" />
      <path
         id="path101"
         d="m 55.8,118.57 h 32.04 v 32.062 H 55.8 Z"
         style="fill:#f2f2f2;fill-opacity:1;fill-rule:evenodd;stroke:none"
         transform="matrix(1.3333333,0,0,-1.3333333,0,624)" />
      <path
         id="path102"
         d="m 87.84,118.57 h 32.04 v 32.062 H 87.84 Z"
         style="fill:#f2f2f2;fill-opacity:1;fill-rule:evenodd;stroke:none"
         transform="matrix(1.3333333,0,0,-1.3333333,0,624)" />
      <path
         id="path103"
         d="m 119.88,118.57 h 32.04 v 32.062 h -32.04 z"
         style="fill:#f2f2f2;fill-opacity:1;fill-rule:evenodd;stroke:none"
         transform="matrix(1.3333333,0,0,-1.3333333,0,624)" />
      <path
         id="path104"
         d="m 151.92,118.57 h 32.04 v 32.062 h -32.04 z"
         style="fill:#f2f2f2;fill-opacity:1;fill-rule:evenodd;stroke:none"
         transform="matrix(1.3333333,0,0,-1.3333333,0,624)" />
      <path
         id="path105"
         d="M 183.96,118.57 H 216 v 32.062 h -32.04 z"
         style="fill:#f2f2f2;fill-opacity:1;fill-rule:evenodd;stroke:none"
         transform="matrix(1.3333333,0,0,-1.3333333,0,624)" />
      <path
         id="path106"
         d="m 216,118.57 h 32.04 v 32.062 H 216 Z"
         style="fill:#f2f2f2;fill-opacity:1;fill-rule:evenodd;stroke:none"
         transform="matrix(1.3333333,0,0,-1.3333333,0,624)" />
      <path
         id="path107"
         d="m 248.04,118.57 h 32.04 v 32.062 h -32.04 z"
         style="fill:#f2f2f2;fill-opacity:1;fill-rule:evenodd;stroke:none"
         transform="matrix(1.3333333,0,0,-1.3333333,0,624)" />
      <path
         id="path108"
         d="m 280.08,118.57 h 32.04 v 32.062 h -32.04 z"
         style="fill:#f2f2f2;fill-opacity:1;fill-rule:evenodd;stroke:none"
         transform="matrix(1.3333333,0,0,-1.3333333,0,624)" />
      <path
         id="path109"
         d="m 312.12,118.57 h 32.04 v 32.062 h -32.04 z"
         style="fill:#f2f2f2;fill-opacity:1;fill-rule:evenodd;stroke:none"
         transform="matrix(1.3333333,0,0,-1.3333333,0,624)" />
      <path
         id="path110"
         d="m 344.16,118.57 h 32.04 v 32.062 h -32.04 z"
         style="fill:#f2f2f2;fill-opacity:1;fill-rule:evenodd;stroke:none"
         transform="matrix(1.3333333,0,0,-1.3333333,0,624)" />
      <path
         id="path111"
         d="m 376.2,118.57 h 32.04 v 32.062 H 376.2 Z"
         style="fill:#f2f2f2;fill-opacity:1;fill-rule:evenodd;stroke:none"
         transform="matrix(1.3333333,0,0,-1.3333333,0,624)" />
      <path
         id="path112"
         d="M 23.76,86.504 H 55.8 v 32.062 H 23.76 Z"
         style="fill:#f2f2f2;fill-opacity:1;fill-rule:evenodd;stroke:none"
         transform="matrix(1.3333333,0,0,-1.3333333,0,624)" />
      <path
         id="path113"
         d="m 55.8,86.504 h 32.04 v 32.062 H 55.8 Z"
         style="fill:#f2f2f2;fill-opacity:1;fill-rule:evenodd;stroke:none"
         transform="matrix(1.3333333,0,0,-1.3333333,0,624)" />
      <path
         id="path114"
         d="m 87.84,86.504 h 32.04 v 32.062 H 87.84 Z"
         style="fill:#f2f2f2;fill-opacity:1;fill-rule:evenodd;stroke:none"
         transform="matrix(1.3333333,0,0,-1.3333333,0,624)" />
      <path
         id="path115"
         d="m 119.88,86.504 h 32.04 v 32.062 h -32.04 z"
         style="fill:#f2f2f2;fill-opacity:1;fill-rule:evenodd;stroke:none"
         transform="matrix(1.3333333,0,0,-1.3333333,0,624)" />
      <path
         id="path116"
         d="m 151.92,86.504 h 32.04 v 32.062 h -32.04 z"
         style="fill:#f2f2f2;fill-opacity:1;fill-rule:evenodd;stroke:none"
         transform="matrix(1.3333333,0,0,-1.3333333,0,624)" />
      <path
         id="path117"
         d="M 183.96,86.504 H 216 v 32.062 h -32.04 z"
         style="fill:#f2f2f2;fill-opacity:1;fill-rule:evenodd;stroke:none"
         transform="matrix(1.3333333,0,0,-1.3333333,0,624)" />
      <path
         id="path118"
         d="m 216,86.504 h 32.04 v 32.062 H 216 Z"
         style="fill:#f2f2f2;fill-opacity:1;fill-rule:evenodd;stroke:none"
         transform="matrix(1.3333333,0,0,-1.3333333,0,624)" />
      <path
         id="path119"
         d="m 248.04,86.504 h 32.04 v 32.062 h -32.04 z"
         style="fill:#f2f2f2;fill-opacity:1;fill-rule:evenodd;stroke:none"
         transform="matrix(1.3333333,0,0,-1.3333333,0,624)" />
      <path
         id="path120"
         d="m 280.08,86.504 h 32.04 v 32.062 h -32.04 z"
         style="fill:#f2f2f2;fill-opacity:1;fill-rule:evenodd;stroke:none"
         transform="matrix(1.3333333,0,0,-1.3333333,0,624)" />
      <path
         id="path121"
         d="m 312.12,86.504 h 32.04 v 32.062 h -32.04 z"
         style="fill:#f2f2f2;fill-opacity:1;fill-rule:evenodd;stroke:none"
         transform="matrix(1.3333333,0,0,-1.3333333,0,624)" />
      <path
         id="path122"
         d="m 344.16,86.504 h 32.04 v 32.062 h -32.04 z"
         style="fill:#f2f2f2;fill-opacity:1;fill-rule:evenodd;stroke:none"
         transform="matrix(1.3333333,0,0,-1.3333333,0,624)" />
      <path
         id="path123"
         d="m 376.2,86.504 h 32.04 v 32.062 H 376.2 Z"
         style="fill:#f2f2f2;fill-opacity:1;fill-rule:evenodd;stroke:none"
         transform="matrix(1.3333333,0,0,-1.3333333,0,624)" />
      <path
         id="path124"
         d="M 23.76,54.441 H 55.8 V 86.503 H 23.76 Z"
         style="fill:#f2f2f2;fill-opacity:1;fill-rule:evenodd;stroke:none"
         transform="matrix(1.3333333,0,0,-1.3333333,0,624)" />
      <path
         id="path125"
         d="M 55.8,54.441 H 87.84 V 86.503 H 55.8 Z"
         style="fill:#f2f2f2;fill-opacity:1;fill-rule:evenodd;stroke:none"
         transform="matrix(1.3333333,0,0,-1.3333333,0,624)" />
      <path
         id="path126"
         d="m 87.84,54.441 h 32.04 V 86.503 H 87.84 Z"
         style="fill:#f2f2f2;fill-opacity:1;fill-rule:evenodd;stroke:none"
         transform="matrix(1.3333333,0,0,-1.3333333,0,624)" />
      <path
         id="path127"
         d="m 119.88,54.441 h 32.04 v 32.062 h -32.04 z"
         style="fill:#f2f2f2;fill-opacity:1;fill-rule:evenodd;stroke:none"
         transform="matrix(1.3333333,0,0,-1.3333333,0,624)" />
      <path
         id="path128"
         d="m 151.92,54.441 h 32.04 v 32.062 h -32.04 z"
         style="fill:#f2f2f2;fill-opacity:1;fill-rule:evenodd;stroke:none"
         transform="matrix(1.3333333,0,0,-1.3333333,0,624)" />
      <path
         id="path129"
         d="M 183.96,54.441 H 216 v 32.062 h -32.04 z"
         style="fill:#f2f2f2;fill-opacity:1;fill-rule:evenodd;stroke:none"
         transform="matrix(1.3333333,0,0,-1.3333333,0,624)" />
      <path
         id="path130"
         d="m 216,54.441 h 32.04 V 86.503 H 216 Z"
         style="fill:#f2f2f2;fill-opacity:1;fill-rule:evenodd;stroke:none"
         transform="matrix(1.3333333,0,0,-1.3333333,0,624)" />
      <path
         id="path131"
         d="m 248.04,54.441 h 32.04 v 32.062 h -32.04 z"
         style="fill:#f2f2f2;fill-opacity:1;fill-rule:evenodd;stroke:none"
         transform="matrix(1.3333333,0,0,-1.3333333,0,624)" />
      <path
         id="path132"
         d="m 280.08,54.441 h 32.04 v 32.062 h -32.04 z"
         style="fill:#f2f2f2;fill-opacity:1;fill-rule:evenodd;stroke:none"
         transform="matrix(1.3333333,0,0,-1.3333333,0,624)" />
      <path
         id="path133"
         d="m 312.12,54.441 h 32.04 v 32.062 h -32.04 z"
         style="fill:#f2f2f2;fill-opacity:1;fill-rule:evenodd;stroke:none"
         transform="matrix(1.3333333,0,0,-1.3333333,0,624)" />
      <path
         id="path134"
         d="M 344.16,54.441 H 376.2 V 86.503 H 344.16 Z"
         style="fill:#f2f2f2;fill-opacity:1;fill-rule:evenodd;stroke:none"
         transform="matrix(1.3333333,0,0,-1.3333333,0,624)" />
      <path
         id="path135"
         d="m 376.2,54.441 h 32.04 V 86.503 H 376.2 Z"
         style="fill:#f2f2f2;fill-opacity:1;fill-rule:evenodd;stroke:none"
         transform="matrix(1.3333333,0,0,-1.3333333,0,624)" />
      <path
         id="path136"
         d="M 23.76,22.379 H 55.8 V 54.441 H 23.76 Z"
         style="fill:#f2f2f2;fill-opacity:1;fill-rule:evenodd;stroke:none"
         transform="matrix(1.3333333,0,0,-1.3333333,0,624)" />
      <path
         id="path137"
         d="M 55.8,22.379 H 87.84 V 54.441 H 55.8 Z"
         style="fill:#f2f2f2;fill-opacity:1;fill-rule:evenodd;stroke:none"
         transform="matrix(1.3333333,0,0,-1.3333333,0,624)" />
      <path
         id="path138"
         d="m 87.84,22.379 h 32.04 V 54.441 H 87.84 Z"
         style="fill:#f2f2f2;fill-opacity:1;fill-rule:evenodd;stroke:none"
         transform="matrix(1.3333333,0,0,-1.3333333,0,624)" />
      <path
         id="path139"
         d="m 119.88,22.379 h 32.04 v 32.062 h -32.04 z"
         style="fill:#f2f2f2;fill-opacity:1;fill-rule:evenodd;stroke:none"
         transform="matrix(1.3333333,0,0,-1.3333333,0,624)" />
      <path
         id="path140"
         d="m 151.92,22.379 h 32.04 v 32.062 h -32.04 z"
         style="fill:#f2f2f2;fill-opacity:1;fill-rule:evenodd;stroke:none"
         transform="matrix(1.3333333,0,0,-1.3333333,0,624)" />
      <path
         id="path141"
         d="M 183.96,22.379 H 216 v 32.062 h -32.04 z"
         style="fill:#f2f2f2;fill-opacity:1;fill-rule:evenodd;stroke:none"
         transform="matrix(1.3333333,0,0,-1.3333333,0,624)" />
      <path
         id="path142"
         d="m 216,22.379 h 32.04 V 54.441 H 216 Z"
         style="fill:#f2f2f2;fill-opacity:1;fill-rule:evenodd;stroke:none"
         transform="matrix(1.3333333,0,0,-1.3333333,0,624)" />
      <path
         id="path143"
         d="m 248.04,22.379 h 32.04 v 32.062 h -32.04 z"
         style="fill:#f2f2f2;fill-opacity:1;fill-rule:evenodd;stroke:none"
         transform="matrix(1.3333333,0,0,-1.3333333,0,624)" />
      <path
         id="path144"
         d="m 280.08,22.379 h 32.04 v 32.062 h -32.04 z"
         style="fill:#f2f2f2;fill-opacity:1;fill-rule:evenodd;stroke:none"
         transform="matrix(1.3333333,0,0,-1.3333333,0,624)" />
      <path
         id="path145"
         d="m 312.12,22.379 h 32.04 v 32.062 h -32.04 z"
         style="fill:#f2f2f2;fill-opacity:1;fill-rule:evenodd;stroke:none"
         transform="matrix(1.3333333,0,0,-1.3333333,0,624)" />
      <path
         id="path146"
         d="M 344.16,22.379 H 376.2 V 54.441 H 344.16 Z"
         style="fill:#f2f2f2;fill-opacity:1;fill-rule:evenodd;stroke:none"
         transform="matrix(1.3333333,0,0,-1.3333333,0,624)" />
      <path
         id="path147"
         d="m 376.2,22.379 h 32.04 V 54.441 H 376.2 Z"
         style="fill:#f2f2f2;fill-opacity:1;fill-rule:evenodd;stroke:none"
         transform="matrix(1.3333333,0,0,-1.3333333,0,624)" />
      <path
         id="path148"
         d="M 55.8,408.63 V 20.879"
         style="fill:none;stroke:#ffffff;stroke-width:1;stroke-linecap:butt;stroke-linejoin:round;stroke-miterlimit:10;stroke-dasharray:none;stroke-opacity:1"
         transform="matrix(1.3333333,0,0,-1.3333333,0,624)" />
      <path
         id="path149"
         d="M 87.84,408.63 V 20.879"
         style="fill:none;stroke:#ffffff;stroke-width:1;stroke-linecap:butt;stroke-linejoin:round;stroke-miterlimit:10;stroke-dasharray:none;stroke-opacity:1"
         transform="matrix(1.3333333,0,0,-1.3333333,0,624)" />
      <path
         id="path150"
         d="M 119.88,408.63 V 20.879"
         style="fill:none;stroke:#ffffff;stroke-width:1;stroke-linecap:butt;stroke-linejoin:round;stroke-miterlimit:10;stroke-dasharray:none;stroke-opacity:1"
         transform="matrix(1.3333333,0,0,-1.3333333,0,624)" />
      <path
         id="path151"
         d="M 151.92,408.63 V 20.879"
         style="fill:none;stroke:#ffffff;stroke-width:1;stroke-linecap:butt;stroke-linejoin:round;stroke-miterlimit:10;stroke-dasharray:none;stroke-opacity:1"
         transform="matrix(1.3333333,0,0,-1.3333333,0,624)" />
      <path
         id="path152"
         d="M 183.96,408.63 V 20.879"
         style="fill:none;stroke:#ffffff;stroke-width:1;stroke-linecap:butt;stroke-linejoin:round;stroke-miterlimit:10;stroke-dasharray:none;stroke-opacity:1"
         transform="matrix(1.3333333,0,0,-1.3333333,0,624)" />
      <path
         id="path153"
         d="M 216,408.63 V 20.879"
         style="fill:none;stroke:#000000;stroke-width:3;stroke-linecap:butt;stroke-linejoin:round;stroke-miterlimit:10;stroke-dasharray:none;stroke-opacity:1"
         transform="matrix(1.3333333,0,0,-1.3333333,0,624)" />
      <path
         id="path154"
         d="M 248.04,408.63 V 20.879"
         style="fill:none;stroke:#ffffff;stroke-width:1;stroke-linecap:butt;stroke-linejoin:round;stroke-miterlimit:10;stroke-dasharray:none;stroke-opacity:1"
         transform="matrix(1.3333333,0,0,-1.3333333,0,624)" />
      <path
         id="path155"
         d="M 280.08,408.63 V 20.879"
         style="fill:none;stroke:#ffffff;stroke-width:1;stroke-linecap:butt;stroke-linejoin:round;stroke-miterlimit:10;stroke-dasharray:none;stroke-opacity:1"
         transform="matrix(1.3333333,0,0,-1.3333333,0,624)" />
      <path
         id="path156"
         d="M 312.12,408.63 V 20.879"
         style="fill:none;stroke:#ffffff;stroke-width:1;stroke-linecap:butt;stroke-linejoin:round;stroke-miterlimit:10;stroke-dasharray:none;stroke-opacity:1"
         transform="matrix(1.3333333,0,0,-1.3333333,0,624)" />
      <path
         id="path157"
         d="M 344.16,408.63 V 20.879"
         style="fill:none;stroke:#ffffff;stroke-width:1;stroke-linecap:butt;stroke-linejoin:round;stroke-miterlimit:10;stroke-dasharray:none;stroke-opacity:1"
         transform="matrix(1.3333333,0,0,-1.3333333,0,624)" />
      <path
         id="path158"
         d="M 376.2,408.63 V 20.879"
         style="fill:none;stroke:#ffffff;stroke-width:1;stroke-linecap:butt;stroke-linejoin:round;stroke-miterlimit:10;stroke-dasharray:none;stroke-opacity:1"
         transform="matrix(1.3333333,0,0,-1.3333333,0,624)" />
      <path
         id="path159"
         d="M 22.26,375.07 H 409.74"
         style="fill:none;stroke:#ffffff;stroke-width:1;stroke-linecap:butt;stroke-linejoin:round;stroke-miterlimit:10;stroke-dasharray:none;stroke-opacity:1"
         transform="matrix(1.3333333,0,0,-1.3333333,0,624)" />
      <path
         id="path160"
         d="M 22.26,343 H 409.74"
         style="fill:none;stroke:#ffffff;stroke-width:1;stroke-linecap:butt;stroke-linejoin:round;stroke-miterlimit:10;stroke-dasharray:none;stroke-opacity:1"
         transform="matrix(1.3333333,0,0,-1.3333333,0,624)" />
      <path
         id="path161"
         d="M 22.26,310.94 H 409.74"
         style="fill:none;stroke:#ffffff;stroke-width:1;stroke-linecap:butt;stroke-linejoin:round;stroke-miterlimit:10;stroke-dasharray:none;stroke-opacity:1"
         transform="matrix(1.3333333,0,0,-1.3333333,0,624)" />
      <path
         id="path162"
         d="M 22.26,278.88 H 409.74"
         style="fill:none;stroke:#ffffff;stroke-width:1;stroke-linecap:butt;stroke-linejoin:round;stroke-miterlimit:10;stroke-dasharray:none;stroke-opacity:1"
         transform="matrix(1.3333333,0,0,-1.3333333,0,624)" />
      <path
         id="path163"
         d="M 22.26,246.82 H 409.74"
         style="fill:none;stroke:#ffffff;stroke-width:1;stroke-linecap:butt;stroke-linejoin:round;stroke-miterlimit:10;stroke-dasharray:none;stroke-opacity:1"
         transform="matrix(1.3333333,0,0,-1.3333333,0,624)" />
      <path
         id="path164"
         d="M 22.26,214.75 H 409.74"
         style="fill:none;stroke:#ffffff;stroke-width:1;stroke-linecap:butt;stroke-linejoin:round;stroke-miterlimit:10;stroke-dasharray:none;stroke-opacity:1"
         transform="matrix(1.3333333,0,0,-1.3333333,0,624)" />
      <path
         id="path165"
         d="M 22.26,182.69 H 409.74"
         style="fill:none;stroke:#ffffff;stroke-width:1;stroke-linecap:butt;stroke-linejoin:round;stroke-miterlimit:10;stroke-dasharray:none;stroke-opacity:1"
         transform="matrix(1.3333333,0,0,-1.3333333,0,624)" />
      <path
         id="path166"
         d="M 22.26,150.63 H 409.74"
         style="fill:none;stroke:#ffffff;stroke-width:1;stroke-linecap:butt;stroke-linejoin:round;stroke-miterlimit:10;stroke-dasharray:none;stroke-opacity:1"
         transform="matrix(1.3333333,0,0,-1.3333333,0,624)" />
      <path
         id="path167"
         d="M 22.26,118.57 H 409.74"
         style="fill:none;stroke:#ffffff;stroke-width:1;stroke-linecap:butt;stroke-linejoin:round;stroke-miterlimit:10;stroke-dasharray:none;stroke-opacity:1"
         transform="matrix(1.3333333,0,0,-1.3333333,0,624)" />
      <path
         id="path168"
         d="M 22.26,86.504 H 409.74"
         style="fill:none;stroke:#ffffff;stroke-width:1;stroke-linecap:butt;stroke-linejoin:round;stroke-miterlimit:10;stroke-dasharray:none;stroke-opacity:1"
         transform="matrix(1.3333333,0,0,-1.3333333,0,624)" />
      <path
         id="path169"
         d="M 22.26,54.441 H 409.74"
         style="fill:none;stroke:#ffffff;stroke-width:1;stroke-linecap:butt;stroke-linejoin:round;stroke-miterlimit:10;stroke-dasharray:none;stroke-opacity:1"
         transform="matrix(1.3333333,0,0,-1.3333333,0,624)" />
      <path
         id="path170"
         d="M 23.76,408.63 V 20.879"
         style="fill:none;stroke:#000000;stroke-width:3;stroke-linecap:butt;stroke-linejoin:round;stroke-miterlimit:10;stroke-dasharray:none;stroke-opacity:1"
         transform="matrix(1.3333333,0,0,-1.3333333,0,624)" />
      <path
         id="path171"
         d="M 408.24,408.63 V 20.879"
         style="fill:none;stroke:#000000;stroke-width:3;stroke-linecap:butt;stroke-linejoin:round;stroke-miterlimit:10;stroke-dasharray:none;stroke-opacity:1"
         transform="matrix(1.3333333,0,0,-1.3333333,0,624)" />
      <path
         id="path172"
         d="M 22.26,407.13 H 409.74"
         style="fill:none;stroke:#000000;stroke-width:3;stroke-linecap:butt;stroke-linejoin:round;stroke-miterlimit:10;stroke-dasharray:none;stroke-opacity:1"
         transform="matrix(1.3333333,0,0,-1.3333333,0,624)" />
      <path
         id="path173"
         d="M 22.26,22.379 H 409.74"
         style="fill:none;stroke:#000000;stroke-width:3;stroke-linecap:butt;stroke-linejoin:round;stroke-miterlimit:10;stroke-dasharray:none;stroke-opacity:1"
         transform="matrix(1.3333333,0,0,-1.3333333,0,624)" />
    </g>
    <g
       id="g173">
      <path
         id="path174"
         d="m 185.88,231.9 c 0,2.09 1.67,3.78 3.72,3.78 2.05,0 3.72,-1.69 3.72,-3.78 0,-2.09 -1.67,-3.78 -3.72,-3.78 -2.05,0 -3.72,1.69 -3.72,3.78 z"
         style="fill:#44546a;fill-opacity:1;fill-rule:evenodd;stroke:none"
         transform="matrix(1.3333333,0,0,-1.3333333,0,624)" />
    </g>
    <g
       id="g174">
      <path
         id="path175"
         d="m 231,218.52 c 0,2.05 1.69,3.72 3.78,3.72 2.09,0 3.78,-1.67 3.78,-3.72 0,-2.05 -1.69,-3.72 -3.78,-3.72 -2.09,0 -3.78,1.67 -3.78,3.72 z"
         style="fill:#44546a;fill-opacity:1;fill-rule:evenodd;stroke:none"
         transform="matrix(1.3333333,0,0,-1.3333333,0,624)" />
    </g>
    <g
       id="g175">
      <path
         id="path176"
         d="m 231,235.62 c 0,2.09 1.69,3.78 3.78,3.78 2.09,0 3.78,-1.69 3.78,-3.78 0,-2.09 -1.69,-3.78 -3.78,-3.78 -2.09,0 -3.78,1.69 -3.78,3.78 z"
         style="fill:#44546a;fill-opacity:1;fill-rule:evenodd;stroke:none"
         transform="matrix(1.3333333,0,0,-1.3333333,0,624)" />
    </g>
    <g
       id="g176">
      <path
         id="path177"
         d="m 222.72,226.02 c 0,2.09 1.69,3.78 3.78,3.78 2.09,0 3.78,-1.69 3.78,-3.78 0,-2.09 -1.69,-3.78 -3.78,-3.78 -2.09,0 -3.78,1.69 -3.78,3.78 z"
         style="fill:#44546a;fill-opacity:1;fill-rule:evenodd;stroke:none"
         transform="matrix(1.3333333,0,0,-1.3333333,0,624)" />
    </g>
    <g
       id="g177">
      <path
         id="path178"
         d="m 187.92,223.62 c 0,2.09 1.67,3.78 3.72,3.78 2.05,0 3.72,-1.69 3.72,-3.78 0,-2.09 -1.67,-3.78 -3.72,-3.78 -2.05,0 -3.72,1.69 -3.72,3.78 z"
         style="fill:#44546a;fill-opacity:1;fill-rule:evenodd;stroke:none"
         transform="matrix(1.3333333,0,0,-1.3333333,0,624)" />
    </g>
    <g
       id="g178">
      <path
         id="path179"
         d="m 196.08,233.52 c 0,2.05 1.69,3.72 3.78,3.72 2.09,0 3.78,-1.67 3.78,-3.72 0,-2.05 -1.69,-3.72 -3.78,-3.72 -2.09,0 -3.78,1.67 -3.78,3.72 z"
         style="fill:#44546a;fill-opacity:1;fill-rule:evenodd;stroke:none"
         transform="matrix(1.3333333,0,0,-1.3333333,0,624)" />
    </g>
    <g
       id="g179">
      <path
         id="path180"
         d="m 202.2,222.24 c 0,2.05 1.69,3.72 3.78,3.72 2.09,0 3.78,-1.67 3.78,-3.72 0,-2.05 -1.69,-3.72 -3.78,-3.72 -2.09,0 -3.78,1.67 -3.78,3.72 z"
         style="fill:#44546a;fill-opacity:1;fill-rule:evenodd;stroke:none"
         transform="matrix(1.3333333,0,0,-1.3333333,0,624)" />
    </g>
    <g
       id="g180">
      <path
         id="path181"
         d="m 202.2,239.88 c 0,2.05 1.69,3.72 3.78,3.72 2.09,0 3.78,-1.67 3.78,-3.72 0,-2.05 -1.69,-3.72 -3.78,-3.72 -2.09,0 -3.78,1.67 -3.78,3.72 z"
         style="fill:#44546a;fill-opacity:1;fill-rule:evenodd;stroke:none"
         transform="matrix(1.3333333,0,0,-1.3333333,0,624)" />
    </g>
    <g
       id="g181">
      <path
         id="path182"
         d="m 221.16,235.14 c 0,2.09 1.67,3.78 3.72,3.78 2.05,0 3.72,-1.69 3.72,-3.78 0,-2.09 -1.67,-3.78 -3.72,-3.78 -2.05,0 -3.72,1.69 -3.72,3.78 z"
         style="fill:#44546a;fill-opacity:1;fill-rule:evenodd;stroke:none"
         transform="matrix(1.3333333,0,0,-1.3333333,0,624)" />
    </g>
    <g
       id="g182">
      <path
         id="path183"
         d="m 187.32,262.08 c 0,2.05 1.67,3.72 3.72,3.72 2.05,0 3.72,-1.67 3.72,-3.72 0,-2.05 -1.67,-3.72 -3.72,-3.72 -2.05,0 -3.72,1.67 -3.72,3.72 z"
         style="fill:#44546a;fill-opacity:1;fill-rule:evenodd;stroke:none"
         transform="matrix(1.3333333,0,0,-1.3333333,0,624)" />
    </g>
    <g
       id="g183">
      <path
         id="path184"
         d="m 221.16,258 c 0,2.05 1.67,3.72 3.72,3.72 2.05,0 3.72,-1.67 3.72,-3.72 0,-2.05 -1.67,-3.72 -3.72,-3.72 -2.05,0 -3.72,1.67 -3.72,3.72 z"
         style="fill:#44546a;fill-opacity:1;fill-rule:evenodd;stroke:none"
         transform="matrix(1.3333333,0,0,-1.3333333,0,624)" />
    </g>
    <g
       id="g184">
      <path
         id="path185"
         d="m 230.04,267.06 c 0,2.09 1.67,3.78 3.72,3.78 2.05,0 3.72,-1.69 3.72,-3.78 0,-2.09 -1.67,-3.78 -3.72,-3.78 -2.05,0 -3.72,1.69 -3.72,3.78 z"
         style="fill:#44546a;fill-opacity:1;fill-rule:evenodd;stroke:none"
         transform="matrix(1.3333333,0,0,-1.3333333,0,624)" />
    </g>
    <g
       id="g185">
      <path
         id="path186"
         d="m 193.32,273.3 c 0,2.09 1.69,3.78 3.78,3.78 2.09,0 3.78,-1.69 3.78,-3.78 0,-2.09 -1.69,-3.78 -3.78,-3.78 -2.09,0 -3.78,1.69 -3.78,3.78 z"
         style="fill:#44546a;fill-opacity:1;fill-rule:evenodd;stroke:none"
         transform="matrix(1.3333333,0,0,-1.3333333,0,624)" />
    </g>
    <g
       id="g186">
      <path
         id="path187"
         d="m 205.32,269.58 c 0,2.09 1.69,3.78 3.78,3.78 2.09,0 3.78,-1.69 3.78,-3.78 0,-2.09 -1.69,-3.78 -3.78,-3.78 -2.09,0 -3.78,1.69 -3.78,3.78 z"
         style="fill:#44546a;fill-opacity:1;fill-rule:evenodd;stroke:none"
         transform="matrix(1.3333333,0,0,-1.3333333,0,624)" />
    </g>
    <g
       id="g187">
      <path
         id="path188"
         d="m 202.2,250.92 c 0,2.05 1.69,3.72 3.78,3.72 2.09,0 3.78,-1.67 3.78,-3.72 0,-2.05 -1.69,-3.72 -3.78,-3.72 -2.09,0 -3.78,1.67 -3.78,3.72 z"
         style="fill:#44546a;fill-opacity:1;fill-rule:evenodd;stroke:none"
         transform="matrix(1.3333333,0,0,-1.3333333,0,624)" />
    </g>
    <g
       id="g188">
      <path
         id="path189"
         d="m 59.4,327.84 c 0,2.05 1.665,3.72 3.72,3.72 2.055,0 3.72,-1.67 3.72,-3.72 0,-2.05 -1.665,-3.72 -3.72,-3.72 -2.055,0 -3.72,1.67 -3.72,3.72 z"
         style="fill:#44546a;fill-opacity:1;fill-rule:evenodd;stroke:none"
         transform="matrix(1.3333333,0,0,-1.3333333,0,624)" />
    </g>
    <g
       id="g189">
      <path
         id="path190"
         d="m 70.56,335.34 c 0,2.09 1.692,3.78 3.78,3.78 2.088,0 3.78,-1.69 3.78,-3.78 0,-2.09 -1.692,-3.78 -3.78,-3.78 -2.088,0 -3.78,1.69 -3.78,3.78 z"
         style="fill:#44546a;fill-opacity:1;fill-rule:evenodd;stroke:none"
         transform="matrix(1.3333333,0,0,-1.3333333,0,624)" />
    </g>
    <g
       id="g190">
      <path
         id="path191"
         d="m 74.4,319.8 c 0,2.05 1.665,3.72 3.72,3.72 2.054,0 3.72,-1.67 3.72,-3.72 0,-2.05 -1.666,-3.72 -3.72,-3.72 -2.055,0 -3.72,1.67 -3.72,3.72 z"
         style="fill:#44546a;fill-opacity:1;fill-rule:evenodd;stroke:none"
         transform="matrix(1.3333333,0,0,-1.3333333,0,624)" />
    </g>
    <g
       id="g191">
      <path
         id="path192"
         d="m 66.96,354.18 c 0,2.09 1.692,3.78 3.78,3.78 2.088,0 3.78,-1.69 3.78,-3.78 0,-2.09 -1.692,-3.78 -3.78,-3.78 -2.088,0 -3.78,1.69 -3.78,3.78 z"
         style="fill:#44546a;fill-opacity:1;fill-rule:evenodd;stroke:none"
         transform="matrix(1.3333333,0,0,-1.3333333,0,624)" />
    </g>
    <g
       id="g192">
      <path
         id="path193"
         d="m 93.24,331.56 c 0,2.05 1.692,3.72 3.78,3.72 2.088,0 3.78,-1.67 3.78,-3.72 0,-2.05 -1.692,-3.72 -3.78,-3.72 -2.088,0 -3.78,1.67 -3.78,3.72 z"
         style="fill:#44546a;fill-opacity:1;fill-rule:evenodd;stroke:none"
         transform="matrix(1.3333333,0,0,-1.3333333,0,624)" />
    </g>
    <g
       id="g193">
      <path
         id="path194"
         d="m 104.52,321.54 c 0,2.09 1.67,3.78 3.72,3.78 2.05,0 3.72,-1.69 3.72,-3.78 0,-2.09 -1.67,-3.78 -3.72,-3.78 -2.05,0 -3.72,1.69 -3.72,3.78 z"
         style="fill:#44546a;fill-opacity:1;fill-rule:evenodd;stroke:none"
         transform="matrix(1.3333333,0,0,-1.3333333,0,624)" />
    </g>
    <g
       id="g194">
      <path
         id="path195"
         d="m 63.12,300.42 c 0,2.09 1.665,3.78 3.72,3.78 2.054,0 3.72,-1.69 3.72,-3.78 0,-2.09 -1.666,-3.78 -3.72,-3.78 -2.055,0 -3.72,1.69 -3.72,3.78 z"
         style="fill:#44546a;fill-opacity:1;fill-rule:evenodd;stroke:none"
         transform="matrix(1.3333333,0,0,-1.3333333,0,624)" />
    </g>
    <g
       id="g195">
      <path
         id="path196"
         d="m 77.52,289.44 c 0,2.05 1.665,3.72 3.72,3.72 2.054,0 3.72,-1.67 3.72,-3.72 0,-2.05 -1.666,-3.72 -3.72,-3.72 -2.055,0 -3.72,1.67 -3.72,3.72 z"
         style="fill:#44546a;fill-opacity:1;fill-rule:evenodd;stroke:none"
         transform="matrix(1.3333333,0,0,-1.3333333,0,624)" />
    </g>
    <g
       id="g196">
      <path
         id="path197"
         d="m 315.12,108.24 c 0,2.05 1.67,3.72 3.72,3.72 2.05,0 3.72,-1.67 3.72,-3.72 0,-2.05 -1.67,-3.72 -3.72,-3.72 -2.05,0 -3.72,1.67 -3.72,3.72 z"
         style="fill:#44546a;fill-opacity:1;fill-rule:evenodd;stroke:none"
         transform="matrix(1.3333333,0,0,-1.3333333,0,624)" />
    </g>
    <g
       id="g197">
      <path
         id="path198"
         d="m 327.48,99.24 c 0,2.05 1.69,3.72 3.78,3.72 2.09,0 3.78,-1.67 3.78,-3.72 0,-2.054 -1.69,-3.72 -3.78,-3.72 -2.09,0 -3.78,1.666 -3.78,3.72 z"
         style="fill:#44546a;fill-opacity:1;fill-rule:evenodd;stroke:none"
         transform="matrix(1.3333333,0,0,-1.3333333,0,624)" />
    </g>
    <g
       id="g198">
      <path
         id="path199"
         d="m 296.16,95.52 c 0,2.055 1.69,3.72 3.78,3.72 2.09,0 3.78,-1.665 3.78,-3.72 0,-2.054 -1.69,-3.72 -3.78,-3.72 -2.09,0 -3.78,1.666 -3.78,3.72 z"
         style="fill:#44546a;fill-opacity:1;fill-rule:evenodd;stroke:none"
         transform="matrix(1.3333333,0,0,-1.3333333,0,624)" />
    </g>
    <g
       id="g199">
      <path
         id="path200"
         d="m 323.52,71.88 c 0,2.055 1.67,3.72 3.72,3.72 2.05,0 3.72,-1.665 3.72,-3.72 0,-2.054 -1.67,-3.72 -3.72,-3.72 -2.05,0 -3.72,1.666 -3.72,3.72 z"
         style="fill:#44546a;fill-opacity:1;fill-rule:evenodd;stroke:none"
         transform="matrix(1.3333333,0,0,-1.3333333,0,624)" />
    </g>
    <g
       id="g200">
      <path
         id="path201"
         d="m 313.56,79.38 c 0,2.088 1.67,3.78 3.72,3.78 2.05,0 3.72,-1.692 3.72,-3.78 0,-2.088 -1.67,-3.78 -3.72,-3.78 -2.05,0 -3.72,1.692 -3.72,3.78 z"
         style="fill:#44546a;fill-opacity:1;fill-rule:evenodd;stroke:none"
         transform="matrix(1.3333333,0,0,-1.3333333,0,624)" />
    </g>
    <g
       id="g201">
      <path
         id="path202"
         d="m 317.28,60.24 c 0,2.055 1.69,3.72 3.78,3.72 2.09,0 3.78,-1.665 3.78,-3.72 0,-2.054 -1.69,-3.72 -3.78,-3.72 -2.09,0 -3.78,1.666 -3.78,3.72 z"
         style="fill:#44546a;fill-opacity:1;fill-rule:evenodd;stroke:none"
         transform="matrix(1.3333333,0,0,-1.3333333,0,624)" />
    </g>
    <g
       id="g202">
      <path
         id="path203"
         d="m 68.16,441.06 c 0,2.68 2.176,4.86 4.86,4.86 h 94.2 c 2.68,0 4.86,-2.18 4.86,-4.86 v -19.44 c 0,-2.68 -2.18,-4.86 -4.86,-4.86 h -94.2 c -2.684,0 -4.86,2.18 -4.86,4.86 z"
         style="fill:#203864;fill-opacity:1;fill-rule:evenodd;stroke:none"
         transform="matrix(1.3333333,0,0,-1.3333333,0,624)" />
    </g>
    <g
       id="g203">
      <path
         id="path204"
         d="M 4.8404531,0.00144531 2.3560781,-7.1587109 h -0.046875 c 0.061523,1.0634765 0.09375,2.0595703 0.09375,2.9882812 V 0.00144531 H 1.1373281 V -8.5649609 h 1.96875 l 2.3789063,6.8085937 h 0.035156 l 2.449219,-6.8085937 H 9.9498281 V 0.00144531 H 8.6021719 V -4.2407422 c 0,-0.421875 0.011719,-0.9726562 0.035156,-1.6523437 0.023437,-0.6855469 0.041016,-1.1044922 0.058594,-1.2539063 h -0.046875 l -2.578125,7.14843751 z m 12.6796879,0 -0.855469,-2.37890621 h -3.269531 l -0.84375,2.37890621 h -1.476563 l 3.210938,-8.60156251 h 1.523437 l 3.199219,8.60156251 z m -1.21875,-3.58593751 -0.808594,-2.3320312 c -0.05566,-0.1552735 -0.137695,-0.4013672 -0.246094,-0.7382813 -0.102539,-0.3339844 -0.172851,-0.5800781 -0.210937,-0.7382812 -0.102539,0.477539 -0.254883,1.0019531 -0.457032,1.5703125 l -0.773437,2.2382812 z M 27.232055,0.00144531 H 25.509398 L 21.302367,-6.8305859 h -0.04687 l 0.02344,0.3867187 c 0.05273,0.7265625 0.08203,1.3916016 0.08203,1.9921875 V 0.00144531 H 20.095336 V -8.5649609 h 1.699219 l 4.195312,6.7851562 h 0.03516 c -0.0088,-0.084961 -0.02344,-0.4101562 -0.04687,-0.9726562 -0.02344,-0.5683594 -0.03516,-1.0107422 -0.03516,-1.3242188 v -4.4882812 h 1.289063 z m 2.223632,0 V -8.5649609 h 1.394532 v 8.56640621 z m 6.66211,0 H 34.723266 V -7.3696484 h -2.519532 v -1.1953125 h 6.433594 v 1.1953125 h -2.519531 z m 11.25293,-4.30078121 c 0,1.4003906 -0.351563,2.484375 -1.054688,3.2578125 -0.697266,0.77343746 -1.681641,1.16015621 -2.953125,1.16015621 -1.297852,0 -2.293945,-0.38085937 -2.988281,-1.14843751 -0.688477,-0.7734375 -1.03125,-1.8662109 -1.03125,-3.28125 0,-1.4121094 0.345703,-2.4990234 1.042969,-3.2578125 0.694335,-0.7558594 1.690429,-1.1367187 2.988281,-1.1367187 1.271484,0 2.255859,0.3867187 2.953125,1.1601562 0.694336,0.7675781 1.042969,1.8486328 1.042969,3.2460938 z m -6.539063,0 c 0,1.0546875 0.210938,1.8574218 0.632813,2.4023437 0.427734,0.5478516 1.060546,0.8203125 1.898437,0.8203125 0.826172,0 1.453125,-0.2695312 1.875,-0.8085937 0.427734,-0.5390625 0.644531,-1.3417969 0.644531,-2.4140625 0,-1.0458985 -0.210937,-1.8398438 -0.632812,-2.3789063 -0.421875,-0.5449219 -1.048828,-0.8203125 -1.875,-0.8203125 -0.84375,0 -1.482422,0.2753906 -1.910156,0.8203125 -0.421875,0.5390625 -0.632813,1.3330078 -0.632813,2.3789063 z m 8.375977,-4.265625 h 2.542968 c 1.177735,0 2.030274,0.1728515 2.554688,0.515625 0.521484,0.3457031 0.785156,0.8876953 0.785156,1.6289062 0,0.5009766 -0.128906,0.9199219 -0.386719,1.2539063 -0.257812,0.328125 -0.629882,0.5361328 -1.113281,0.6210937 v 0.058594 c 0.600586,0.1113281 1.042969,0.3339843 1.324219,0.6679687 0.287109,0.3369141 0.433594,0.7910156 0.433594,1.359375 0,0.7675781 -0.269532,1.3681641 -0.808594,1.80468751 -0.539063,0.43945313 -1.286133,0.65625 -2.238281,0.65625 h -3.09375 z m 1.394531,3.5390625 h 1.347656 c 0.585938,0 1.010742,-0.09375 1.277344,-0.28125 0.272461,-0.1875 0.410156,-0.5039063 0.410156,-0.9492188 0,-0.3984375 -0.146484,-0.6855469 -0.433594,-0.8671875 -0.290039,-0.1787109 -0.75,-0.2695312 -1.382812,-0.2695312 h -1.21875 z m 0,1.1367187 v 2.7070313 h 1.488281 c 0.585938,0 1.025391,-0.1083985 1.324219,-0.328125 0.304687,-0.225586 0.457031,-0.5800782 0.457031,-1.0664063 0,-0.4453125 -0.152344,-0.7734375 -0.457031,-0.984375 -0.304688,-0.2167969 -0.770508,-0.328125 -1.394531,-0.328125 z M 62.233031,0.00144531 61.377562,-2.3774609 h -3.269531 l -0.84375,2.37890621 h -1.476562 l 3.210937,-8.60156251 h 1.523438 l 3.199218,8.60156251 z m -1.21875,-3.58593751 -0.808594,-2.3320312 c -0.05566,-0.1552735 -0.137695,-0.4013672 -0.246093,-0.7382813 -0.102539,-0.3339844 -0.172852,-0.5800781 -0.210938,-0.7382812 -0.102539,0.477539 -0.254883,1.0019531 -0.457031,1.5703125 l -0.773438,2.2382812 z m 0,0"
         style="fill:#ffffff;fill-opacity:1;fill-rule:nonzero;stroke:none"
         aria-label="MANITOBA"
         transform="matrix(1.3333333,0,0,1.3333333,117.632,54.306667)"
         clip-path="url(#clipPath205)" />
    </g>
    <g
       id="g205">
      <path
         id="path206"
         d="m 260.88,441.06 c 0,2.68 2.18,4.86 4.86,4.86 h 94.2 c 2.68,0 4.86,-2.18 4.86,-4.86 v -19.44 c 0,-2.68 -2.18,-4.86 -4.86,-4.86 h -94.2 c -2.68,0 -4.86,2.18 -4.86,4.86 z"
         style="fill:#203864;fill-opacity:1;fill-rule:evenodd;stroke:none"
         transform="matrix(1.3333333,0,0,-1.3333333,0,624)" />
    </g>
    <g
       id="g206">
      <path
         id="path207"
         d="m 8.7434375,-4.2993359 c 0,1.4003906 -0.3515625,2.484375 -1.0546875,3.2578125 -0.6972656,0.77343746 -1.6816406,1.16015621 -2.953125,1.16015621 -1.2978516,0 -2.2939453,-0.38085937 -2.9882812,-1.14843751 -0.6884766,-0.7734375 -1.03125005,-1.8662109 -1.03125005,-3.28125 0,-1.4121094 0.34570315,-2.4990234 1.04296875,-3.2578125 0.6943359,-0.7558594 1.6904297,-1.1367187 2.9882813,-1.1367187 1.2714843,0 2.2558593,0.3867187 2.953125,1.1601562 0.6943359,0.7675781 1.0429687,1.8486328 1.0429687,3.2460938 z m -6.5390625,0 c 0,1.0546875 0.2109375,1.8574218 0.6328125,2.4023437 0.4277344,0.5478516 1.0605469,0.8203125 1.8984375,0.8203125 0.8261719,0 1.453125,-0.2695312 1.875,-0.8085937 0.4277344,-0.5390625 0.6445313,-1.3417969 0.6445313,-2.4140625 0,-1.0458985 -0.2109375,-1.8398438 -0.6328125,-2.3789063 -0.421875,-0.5449219 -1.0488282,-0.8203125 -1.875,-0.8203125 -0.84375,0 -1.4824219,0.2753906 -1.9101563,0.8203125 -0.421875,0.5390625 -0.6328125,1.3330078 -0.6328125,2.3789063 z M 17.71707,0.00144531 H 15.994414 L 11.787383,-6.8305859 h -0.04687 l 0.02344,0.3867187 c 0.05274,0.7265625 0.08203,1.3916016 0.08203,1.9921875 V 0.00144531 H 10.580352 V -8.5649609 h 1.699218 l 4.195313,6.7851562 h 0.03516 c -0.0088,-0.084961 -0.02344,-0.4101562 -0.04687,-0.9726562 -0.02344,-0.5683594 -0.03516,-1.0107422 -0.03516,-1.3242188 v -4.4882812 h 1.289062 z m 5.211914,0 H 21.534453 V -7.3696484 h -2.519531 v -1.1953125 h 6.433594 v 1.1953125 h -2.519532 z m 8.355469,0 -0.855469,-2.37890621 h -3.269531 l -0.84375,2.37890621 h -1.476562 l 3.210937,-8.60156251 h 1.523438 l 3.199218,8.60156251 z m -1.21875,-3.58593751 -0.808594,-2.3320312 c -0.05566,-0.1552735 -0.137695,-0.4013672 -0.246093,-0.7382813 -0.102539,-0.3339844 -0.172852,-0.5800781 -0.210938,-0.7382812 -0.102539,0.477539 -0.254883,1.0019531 -0.457031,1.5703125 l -0.773438,2.2382812 z m 5.238281,-0.9960937 h 0.972657 c 0.65625,0 1.127929,-0.1201172 1.417968,-0.3632813 0.295899,-0.2402344 0.445313,-0.6005859 0.445313,-1.078125 0,-0.4833984 -0.161133,-0.8320312 -0.480469,-1.0429687 -0.313476,-0.2109375 -0.791015,-0.3164063 -1.429687,-0.3164063 h -0.925782 z m 0,1.1601562 V 0.00144531 H 33.909453 V -8.5649609 h 2.414063 c 1.107422,0 1.927734,0.2080078 2.460937,0.6210937 0.530274,0.4160156 0.796875,1.0400391 0.796875,1.875 0,1.0634766 -0.55664,1.8222656 -1.664062,2.2734375 l 2.414062,3.79687501 h -1.59375 L 36.686797,-3.4204297 Z m 6.272461,3.42187501 V -8.5649609 h 1.394532 V 0.00144531 Z M 52.890898,-4.2993359 c 0,1.4003906 -0.351562,2.484375 -1.054687,3.2578125 -0.697266,0.77343746 -1.681641,1.16015621 -2.953125,1.16015621 -1.297852,0 -2.293945,-0.38085937 -2.988281,-1.14843751 -0.688477,-0.7734375 -1.03125,-1.8662109 -1.03125,-3.28125 0,-1.4121094 0.345703,-2.4990234 1.042968,-3.2578125 0.694336,-0.7558594 1.69043,-1.1367187 2.988282,-1.1367187 1.271484,0 2.255859,0.3867187 2.953125,1.1601562 0.694336,0.7675781 1.042968,1.8486328 1.042968,3.2460938 z m -6.539062,0 c 0,1.0546875 0.210937,1.8574218 0.632812,2.4023437 0.427735,0.5478516 1.060547,0.8203125 1.898438,0.8203125 0.826172,0 1.453125,-0.2695312 1.875,-0.8085937 0.427734,-0.5390625 0.644531,-1.3417969 0.644531,-2.4140625 0,-1.0458985 -0.210937,-1.8398438 -0.632812,-2.3789063 -0.421875,-0.5449219 -1.048828,-0.8203125 -1.875,-0.8203125 -0.84375,0 -1.482422,0.2753906 -1.910157,0.8203125 -0.421875,0.5390625 -0.632812,1.3330078 -0.632812,2.3789063 z m 0,0"
         style="fill:#ffffff;fill-opacity:1;fill-rule:nonzero;stroke:none"
         aria-label="ONTARIO"
         transform="matrix(1.3333333,0,0,1.3333333,381.37333,54.306667)"
         clip-path="url(#clipPath208)" />
    </g>
  </g>
</svg>
